{
  "accessors": [
    {
      "bufferView": 2,
      "componentType": 5126,
      "count": 65532,
      "max": [
        -32.68996047973633,
        20.565282821655273,
        -33.02342224121094
      ],
      "min": [
        -191.43597412109375,
        -29.492259979248047,
        -148.36538696289063
      ],
      "type": "VEC3"
    },
    {
      "bufferView": 2,
      "byteOffset": 786384,
      "componentType": 5126,
      "count": 65532,
      "max": [
        0.9025449156761169,
        0.9999778866767883,
        0.9999169707298279
      ],
      "min": [
        -0.9999451041221619,
        -0.9999985694885254,
        -0.8369576334953308
      ],
      "type": "VEC3"
    },
    {
      "bufferView": 1,
      "componentType": 5126,
      "count": 65532,
      "max": [
        0.9818540215492249,
        0.7165529727935791
      ],
      "min": [
        0.019571000710129738,
        0.009782000444829464
      ],
      "type": "VEC2"
    },
    {
      "bufferView": 0,
      "componentType": 5125,
      "count": 379146,
      "type": "SCALAR"
    },
    {
      "bufferView": 2,
      "byteOffset": 1572768,
      "componentType": 5126,
      "count": 65532,
      "max": [
        -5.04996919631958,
        51.501407623291016,
        -32.861942291259766
      ],
      "min": [
        -191.43597412109375,
        -28.070281982421875,
        -230.03318786621094
      ],
      "type": "VEC3"
    },
    {
      "bufferView": 2,
      "byteOffset": 2359152,
      "componentType": 5126,
      "count": 65532,
      "max": [
        0.9987528920173645,
        0.9999860525131226,
        0.9988543391227722
      ],
      "min": [
        -0.9999977946281433,
        -0.9792842268943787,
        -0.9961108565330505
      ],
      "type": "VEC3"
    },
    {
      "bufferView": 1,
      "byteOffset": 524256,
      "componentType": 5126,
      "count": 65532,
      "max": [
        0.8220599889755249,
        0.5317800045013428
      ],
      "min": [
        0.17087699472904205,
        0.03318699821829796
      ],
      "type": "VEC2"
    },
    {
      "bufferView": 0,
      "byteOffset": 1516584,
      "componentType": 5125,
      "count": 363057,
      "type": "SCALAR"
    },
    {
      "bufferView": 2,
      "byteOffset": 3145536,
      "componentType": 5126,
      "count": 65532,
      "max": [
        -7.130250930786133,
        41.118343353271484,
        -32.89777374267578
      ],
      "min": [
        -186.44154357910156,
        -29.115737915039063,
        -230.1492919921875
      ],
      "type": "VEC3"
    },
    {
      "bufferView": 2,
      "byteOffset": 3931920,
      "componentType": 5126,
      "count": 65532,
      "max": [
        0.9999933838844299,
        0.5425636172294617,
        0.9897724986076355
      ],
      "min": [
        -0.9700967073440552,
        -0.9999920725822449,
        -0.9664225578308105
      ],
      "type": "VEC3"
    },
    {
      "bufferView": 1,
      "byteOffset": 1048512,
      "componentType": 5126,
      "count": 65532,
      "max": [
        0.914680004119873,
        0.7966079711914063
      ],
      "min": [
        0.11205299943685532,
        0.19865499436855316
      ],
      "type": "VEC2"
    },
    {
      "bufferView": 0,
      "byteOffset": 2968812,
      "componentType": 5125,
      "count": 362106,
      "type": "SCALAR"
    },
    {
      "bufferView": 2,
      "byteOffset": 4718304,
      "componentType": 5126,
      "count": 65532,
      "max": [
        -22.58115005493164,
        44.11745071411133,
        -33.071250915527344
      ],
      "min": [
        -181.80191040039063,
        -27.6959171295166,
        -228.43267822265625
      ],
      "type": "VEC3"
    },
    {
      "bufferView": 2,
      "byteOffset": 5504688,
      "componentType": 5126,
      "count": 65532,
      "max": [
        0.9933537840843201,
        0.9999812245368958,
        0.9991259574890137
      ],
      "min": [
        -0.9918055534362793,
        -0.9999821782112122,
        -0.9999144673347473
      ],
      "type": "VEC3"
    },
    {
      "bufferView": 1,
      "byteOffset": 1572768,
      "componentType": 5126,
      "count": 65532,
      "max": [
        0.7083929777145386,
        0.9993249773979187
      ],
      "min": [
        0.013380000367760658,
        0.4225560128688812
      ],
      "type": "VEC2"
    },
    {
      "bufferView": 0,
      "byteOffset": 4417236,
      "componentType": 5125,
      "count": 368355,
      "type": "SCALAR"
    },
    {
      "bufferView": 2,
      "byteOffset": 6291072,
      "componentType": 5126,
      "count": 65532,
      "max": [
        -11.588557243347168,
        53.73859405517578,
        -51.846038818359375
      ],
      "min": [
        -181.96697998046875,
        -27.53421974182129,
        -228.60025024414063
      ],
      "type": "VEC3"
    },
    {
      "bufferView": 2,
      "byteOffset": 7077456,
      "componentType": 5126,
      "count": 65532,
      "max": [
        0.9942469596862793,
        0.9999167919158936,
        0.9998660683631897
      ],
      "min": [
        -0.9996926784515381,
        -0.9999985694885254,
        -0.9986408352851868
      ],
      "type": "VEC3"
    },
    {
      "bufferView": 1,
      "byteOffset": 2097024,
      "componentType": 5126,
      "count": 65532,
      "max": [
        0.8971610069274902,
        0.9986159801483154
      ],
      "min": [
        0.0006750000175088644,
        0.42347800731658936
      ],
      "type": "VEC2"
    },
    {
      "bufferView": 0,
      "byteOffset": 5890656,
      "componentType": 5125,
      "count": 363378,
      "type": "SCALAR"
    },
    {
      "bufferView": 2,
      "byteOffset": 7863840,
      "componentType": 5126,
      "count": 65532,
      "max": [
        -5.009838104248047,
        48.557186126708984,
        -56.68151092529297
      ],
      "min": [
        -183.5550537109375,
        -32.30413818359375,
        -230.98934936523438
      ],
      "type": "VEC3"
    },
    {
      "bufferView": 2,
      "byteOffset": 8650224,
      "componentType": 5126,
      "count": 65532,
      "max": [
        0.9980318546295166,
        0.7538227438926697,
        0.9998660683631897
      ],
      "min": [
        -0.9731341600418091,
        -0.9999995231628418,
        -0.9978048205375671
      ],
      "type": "VEC3"
    },
    {
      "bufferView": 1,
      "byteOffset": 2621280,
      "componentType": 5126,
      "count": 65532,
      "max": [
        0.9986109733581543,
        0.9196900129318237
      ],
      "min": [
        0.09718199819326401,
        0.17323200404644012
      ],
      "type": "VEC2"
    },
    {
      "bufferView": 0,
      "byteOffset": 7344168,
      "componentType": 5125,
      "count": 369711,
      "type": "SCALAR"
    },
    {
      "bufferView": 2,
      "byteOffset": 9436608,
      "componentType": 5126,
      "count": 22062,
      "max": [
        -4.950916767120361,
        49.77239227294922,
        -159.1547393798828
      ],
      "min": [
        -111.9067611694336,
        -28.307090759277344,
        -229.86373901367188
      ],
      "type": "VEC3"
    },
    {
      "bufferView": 2,
      "byteOffset": 9701352,
      "componentType": 5126,
      "count": 22062,
      "max": [
        0.9948232769966125,
        0.9500224590301514,
        0.7827361226081848
      ],
      "min": [
        -0.9158636331558228,
        -0.9726471900939941,
        -0.9972904920578003
      ],
      "type": "VEC3"
    },
    {
      "bufferView": 1,
      "byteOffset": 3145536,
      "componentType": 5126,
      "count": 22062,
      "max": [
        0.38520899415016174,
        0.5864899754524231
      ],
      "min": [
        0.11460000276565552,
        0.1708420068025589
      ],
      "type": "VEC2"
    },
    {
      "bufferView": 0,
      "byteOffset": 8823012,
      "componentType": 5125,
      "count": 113223,
      "type": "SCALAR"
    }
  ],
  "asset": {
    "extras": {
      "author": "kevjumba (https://sketchfab.com/kevinmullin99)",
      "license": "CC-BY-4.0 (http://creativecommons.org/licenses/by/4.0/)",
      "source": "https://sketchfab.com/3d-models/kevins-hand-865a1a6cdbd44afeba5ce8d738fdd300",
      "title": "Kevin's Hand"
    },
    "generator": "Sketchfab-15.12.0",
    "version": "2.0"
  },
  "bufferViews": [
    {
      "buffer": 0,
      "byteLength": 9275904,
      "name": "floatBufferViews",
      "target": 34963
    },
    {
      "buffer": 0,
      "byteLength": 3322032,
      "byteOffset": 9275904,
      "byteStride": 8,
      "name": "floatBufferViews",
      "target": 34962
    },
    {
      "buffer": 0,
      "byteLength": 9966096,
      "byteOffset": 12597936,
      "byteStride": 12,
      "name": "floatBufferViews",
      "target": 34962
    }
  ],
  "buffers": [
    {
      "byteLength": 22564032,
      "uri": "scene.bin"
    }
  ],
  "images": [
    {
      "uri": "textures/material_0_baseColor.jpeg"
    }
  ],
  "materials": [
    {
      "doubleSided": true,
      "name": "material_0",
      "pbrMetallicRoughness": {
        "baseColorTexture": {
          "index": 0
        },
        "metallicFactor": 0.0,
        "roughnessFactor": 0.5321890504809158
      }
    }
  ],
  "meshes": [
    {
      "name": "Object_0",
      "primitives": [
        {
          "attributes": {
            "NORMAL": 1,
            "POSITION": 0,
            "TEXCOORD_0": 2
          },
          "indices": 3,
          "material": 0,
          "mode": 4
        }
      ]
    },
    {
      "name": "Object_1",
      "primitives": [
        {
          "attributes": {
            "NORMAL": 5,
            "POSITION": 4,
            "TEXCOORD_0": 6
          },
          "indices": 7,
          "material": 0,
          "mode": 4
        }
      ]
    },
    {
      "name": "Object_2",
      "primitives": [
        {
          "attributes": {
            "NORMAL": 9,
            "POSITION": 8,
            "TEXCOORD_0": 10
          },
          "indices": 11,
          "material": 0,
          "mode": 4
        }
      ]
    },
    {
      "name": "Object_3",
      "primitives": [
        {
          "attributes": {
            "NORMAL": 13,
            "POSITION": 12,
            "TEXCOORD_0": 14
          },
          "indices": 15,
          "material": 0,
          "mode": 4
        }
      ]
    },
    {
      "name": "Object_4",
      "primitives": [
        {
          "attributes": {
            "NORMAL": 17,
            "POSITION": 16,
            "TEXCOORD_0": 18
          },
          "indices": 19,
          "material": 0,
          "mode": 4
        }
      ]
    },
    {
      "name": "Object_5",
      "primitives": [
        {
          "attributes": {
            "NORMAL": 21,
            "POSITION": 20,
            "TEXCOORD_0": 22
          },
          "indices": 23,
          "material": 0,
          "mode": 4
        }
      ]
    },
    {
      "name": "Object_6",
      "primitives": [
        {
          "attributes": {
            "NORMAL": 25,
            "POSITION": 24,
            "TEXCOORD_0": 26
          },
          "indices": 27,
          "material": 0,
          "mode": 4
        }
      ]
    }
  ],
  "nodes": [
    {
      "children": [
        1
      ],
      "matrix": [
        1.0,
        0.0,
        0.0,
        0.0,
        0.0,
        2.220446049250313e-16,
        -1.0,
        0.0,
        0.0,
        1.0,
        2.220446049250313e-16,
        0.0,
        0.0,
        0.0,
        0.0,
        1.0
      ],
      "name": "Sketchfab_model"
    },
    {
      "children": [
        2,
        3,
        4,
        5,
        6,
        7,
        8
      ],
      "name": "Kev Hand Textured.obj.cleaner.materialmerger.gles"
    },
    {
      "mesh": 0,
      "name": "Object_2"
    },
    {
      "mesh": 1,
      "name": "Object_3"
    },
    {
      "mesh": 2,
      "name": "Object_4"
    },
    {
      "mesh": 3,
      "name": "Object_5"
    },
    {
      "mesh": 4,
      "name": "Object_6"
    },
    {
      "mesh": 5,
      "name": "Object_7"
    },
    {
      "mesh": 6,
      "name": "Object_8"
    }
  ],
  "samplers": [
    {
      "magFilter": 9729,
      "minFilter": 9987,
      "wrapS": 10497,
      "wrapT": 10497
    }
  ],
  "scene": 0,
  "scenes": [
    {
      "name": "Sketchfab_Scene",
      "nodes": [
        0
      ]
    }
  ],
  "textures": [
    {
      "sampler": 0,
      "source": 0
    }
  ]
}
