{
  "accessors": [
    {
      "bufferView": 1,
      "componentType": 5126,
      "count": 65532,
      "max": [
        6.235846996307373,
        9.998291015625,
        2.696308135986328
      ],
      "min": [
        0.0,
        0.0027947425842285156,
        0.0
      ],
      "type": "VEC3"
    },
    {
      "bufferView": 1,
      "byteOffset": 786384,
      "componentType": 5126,
      "count": 65532,
      "max": [
        0.9999951124191284,
        0.9995148777961731,
        0.9999922513961792
      ],
      "min": [
        -0.99997878074646,
        -0.999893307685852,
        -0.999998927116394
      ],
      "type": "VEC3"
    },
    {
      "bufferView": 0,
      "componentType": 5125,
      "count": 341763,
      "type": "SCALAR"
    },
    {
      "bufferView": 1,
      "byteOffset": 1572768,
      "componentType": 5126,
      "count": 65532,
      "max": [
        6.083467960357666,
        8.242701530456543,
        2.654932975769043
      ],
      "min": [
        0.9657919406890869,
        0.0,
        0.4870870113372803
      ],
      "type": "VEC3"
    },
    {
      "bufferView": 1,
      "byteOffset": 2359152,
      "componentType": 5126,
      "count": 65532,
      "max": [
        0.9998578429222107,
        0.944444477558136,
        0.9999992847442627
      ],
      "min": [
        -0.9999784231185913,
        -0.9998729825019836,
        -0.999998927116394
      ],
      "type": "VEC3"
    },
    {
      "bufferView": 0,
      "byteOffset": 1367052,
      "componentType": 5125,
      "count": 322611,
      "type": "SCALAR"
    },
    {
      "bufferView": 1,
      "byteOffset": 3145536,
      "componentType": 5126,
      "count": 16267,
      "max": [
        6.235846996307373,
        9.941143035888672,
        2.7000088691711426
      ],
      "min": [
        0.5407280921936035,
        0.0023107528686523438,
        0.0
      ],
      "type": "VEC3"
    },
    {
      "bufferView": 1,
      "byteOffset": 3340740,
      "componentType": 5126,
      "count": 16267,
      "max": [
        0.9994430541992188,
        0.9948452711105347,
        0.9999949932098389
      ],
      "min": [
        -0.9999784231185913,
        -0.9982174634933472,
        -0.9999954700469971
      ],
      "type": "VEC3"
    },
    {
      "bufferView": 0,
      "byteOffset": 2657496,
      "componentType": 5125,
      "count": 47292,
      "type": "SCALAR"
    }
  ],
  "asset": {
    "extras": {
      "author": "Ian Christopher (https://sketchfab.com/ianchrisjohn)",
      "license": "CC-BY-4.0 (http://creativecommons.org/licenses/by/4.0/)",
      "source": "https://sketchfab.com/3d-models/realistic-left-hand-97208693ce4b43729cdcc35621c51bc0",
      "title": "Realistic Left Hand"
    },
    "generator": "Sketchfab-12.66.0",
    "version": "2.0"
  },
  "bufferViews": [
    {
      "buffer": 0,
      "byteLength": 2846664,
      "name": "floatBufferViews",
      "target": 34963
    },
    {
      "buffer": 0,
      "byteLength": 3535944,
      "byteOffset": 2846664,
      "byteStride": 12,
      "name": "floatBufferViews",
      "target": 34962
    }
  ],
  "buffers": [
    {
      "byteLength": 6382608,
      "uri": "scene.bin"
    }
  ],
  "materials": [
    {
      "doubleSided": true,
      "name": "Material.001",
      "pbrMetallicRoughness": {
        "baseColorFactor": [
          0.5830405017641959,
          0.2818550315310395,
          0.11022653079915916,
          1.0
        ],
        "metallicFactor": 0.0,
        "roughnessFactor": 0.5748856707317073
      }
    }
  ],
  "meshes": [
    {
      "name": "Object_0",
      "primitives": [
        {
          "attributes": {
            "NORMAL": 1,
            "POSITION": 0
          },
          "indices": 2,
          "material": 0,
          "mode": 4
        }
      ]
    },
    {
      "name": "Object_1",
      "primitives": [
        {
          "attributes": {
            "NORMAL": 4,
            "POSITION": 3
          },
          "indices": 5,
          "material": 0,
          "mode": 4
        }
      ]
    },
    {
      "name": "Object_2",
      "primitives": [
        {
          "attributes": {
            "NORMAL": 7,
            "POSITION": 6
          },
          "indices": 8,
          "material": 0,
          "mode": 4
        }
      ]
    }
  ],
  "nodes": [
    {
      "children": [
        1
      ],
      "matrix": [
        1.0,
        0.0,
        0.0,
        0.0,
        0.0,
        2.220446049250313e-16,
        -1.0,
        0.0,
        0.0,
        1.0,
        2.220446049250313e-16,
        0.0,
        0.0,
        0.0,
        0.0,
        1.0
      ],
      "name": "Sketchfab_model"
    },
    {
      "children": [
        2
      ],
      "matrix": [
        1.0,
        0.0,
        0.0,
        0.0,
        0.0,
        1.0,
        0.0,
        0.0,
        0.0,
        0.0,
        1.0,
        0.0,
        -3.9989969730377197,
        -5.7125468254089355,
        -1.4266510009765625,
        1.0
      ],
      "name": "HandL_Hi.obj.cleaner.materialmerger.gles"
    },
    {
      "children": [
        3,
        4,
        5
      ],
      "name": "Object_2"
    },
    {
      "mesh": 0,
      "name": "Object_3"
    },
    {
      "mesh": 1,
      "name": "Object_4"
    },
    {
      "mesh": 2,
      "name": "Object_5"
    }
  ],
  "scene": 0,
  "scenes": [
    {
      "name": "Sketchfab_Scene",
      "nodes": [
        0
      ]
    }
  ]
}
